nColumns=19
nRows=100
DataType=double
version=3
OpenSimVersion=4.1
endheader
time	ground_force_calcn_r_vx	ground_force_calcn_r_vy	ground_force_calcn_r_vz	ground_force_calcn_r_px	ground_force_calcn_r_py	ground_force_calcn_r_pz	ground_force_calcn_r_mx	ground_force_calcn_r_my	ground_force_calcn_r_mz	ground_force_calcn_l_vx	ground_force_calcn_l_vy	ground_force_calcn_l_vz	ground_force_calcn_l_px	ground_force_calcn_l_py	ground_force_calcn_l_pz	ground_force_calcn_l_mx	ground_force_calcn_l_my	ground_force_calcn_l_mz
0.03	121.903	103.459	-20.4366	0.494864	0	-0.333916	2.14896	1.82383	-0.360267	0	0	0	0	0	0	0	0	0
0.04	60.7659	57.429	-11.958	0.441371	0	-0.328726	0.668556	0.631843	-0.131564	0	0	0	0	0	0	0	0	0
0.05	0	0	0	0	0	0	0	0	0	0	0	0	0	0	0	0	0	0
0.06	0	0	0	0	0	0	0	0	0	0	0	0	0	0	0	0	0	0
0.07	0	0	0	0	0	0	0	0	0	0	0	0	0	0	0	0	0	0
0.08	0	0	0	0	0	0	0	0	0	0	0	0	0	0	0	0	0	0
0.09	0	0	0	0	0	0	0	0	0	0	0	0	0	0	0	0	0	0
0.1	0	0	0	0	0	0	0	0	0	0	0	0	0	0	0	0	0	0
0.11	0	0	0	0	0	0	0	0	0	0	0	0	0	0	0	0	0	0
0.12	0	0	0	0	0	0	0	0	0	0	0	0	0	0	0	0	0	0
0.13	-18.9319	69.2099	-1.40908	1.50933	0	0.177582	0.171812	-0.628099	0.0127878	0	0	0	0	0	0	0	0	0
0.14	-37.1444	205.264	-11.6596	0.90585	0	-0.231912	-0.11853	0.655007	-0.0372062	0	0	0	0	0	0	0	0	0
0.15	-57.384	476.306	-26.5559	0.884614	0	-0.238481	-0.164855	1.36835	-0.0762908	0	0	0	0	0	0	0	0	0
0.16	-89.4952	828.812	-29.3284	0.872562	0	-0.239374	-0.152486	1.41217	-0.0499711	0	0	0	0	0	0	0	0	0
0.17	-150.062	1103.83	-15.0504	0.861862	0	-0.238564	-0.096844	0.712368	-0.00971291	0	0	0	0	0	0	0	0	0
0.18	-223.216	1236.3	-9.95824	0.847787	0	-0.236605	0.0914379	-0.506436	0.00407928	0	0	0	0	0	0	0	0	0
0.19	-266.444	1321.6	-38.3709	0.825459	0	-0.233749	0.36647	-1.81774	0.0527757	0	0	0	0	0	0	0	0	0
0.2	-252.453	1430.39	-69.0818	0.792764	0	-0.230457	0.519135	-2.9414	0.142057	0	0	0	0	0	0	0	0	0
0.21	-201.955	1542.47	-71.4087	0.752571	0	-0.227254	0.482487	-3.68508	0.170602	0	0	0	0	0	0	0	0	0
0.22	-137.805	1614.75	-73.7232	0.709615	0	-0.224588	0.325476	-3.81382	0.174124	0	0	0	0	0	0	0	0	0
0.23	-63.8796	1634.75	-94.1326	0.666529	0	-0.222663	0.128635	-3.29192	0.189556	0	0	0	0	0	0	0	0	0
0.24	14.8904	1606.62	-102.093	0.623592	0	-0.22147	-0.0243805	-2.63058	0.16716	0	0	0	0	0	0	0	0	0
0.25	92.8498	1530.08	-83.85	0.580278	0	-0.221069	-0.164243	-2.70657	0.148323	0	0	0	0	0	0	0	0	0
0.26	164.572	1399.68	-59.9534	0.536404	0	-0.221642	-0.466024	-3.9635	0.169772	0	0	0	0	0	0	0	0	0
0.27	219.956	1215.61	-37.3269	0.492364	0	-0.223239	-1.04856	-5.79498	0.177943	0	0	0	0	0	0	0	0	0
0.28	248.013	991.486	-13.7938	0.448598	0	-0.225503	-1.72075	-6.87908	0.0957038	0	0	0	0	0	0	0	0	0
0.29	242.303	747.948	3.0425	0.4044	0	-0.227567	-2.05401	-6.34035	-0.0257913	0	0	0	0	0	0	0	0	0
0.3	208.256	507.77	9.94992	0.356533	0	-0.228233	-1.90923	-4.6551	-0.0912182	0	0	0	0	0	0	0	0	0
0.31	159.955	299.906	10.0322	0.297917	0	-0.226128	-1.73868	-3.25992	-0.109048	0	0	0	0	0	0	0	0	0
0.32	104.006	149.738	4.93078	0.215888	0	-0.217565	-2.11233	-3.04114	-0.100143	0	0	0	0	0	0	0	0	0
0.33	48.4581	65.6724	0.639189	0.123516	0	-0.144591	-2.79381	-3.78628	-0.0368519	0	0	0	0	0	0	0	0	0
0.34	0	0	0	0	0	0	0	0	0	0	0	0	0	0	0	0	0	0
0.35	0	0	0	0	0	0	0	0	0	0	0	0	0	0	0	0	0	0
0.36	0	0	0	0	0	0	0	0	0	0	0	0	0	0	0	0	0	0
0.37	0	0	0	0	0	0	0	0	0	0	0	0	0	0	0	0	0	0
0.38	0	0	0	0	0	0	0	0	0	0	0	0	0	0	0	0	0	0
0.39	0	0	0	0	0	0	0	0	0	0	0	0	0	0	0	0	0	0
0.4	0	0	0	0	0	0	0	0	0	0	0	0	0	0	0	0	0	0
0.41	0	0	0	0	0	0	0	0	0	-16.9255	54.6212	-7.29172	6.04415	0	1.72119	-0.226927	0.732325	-0.0977627
0.42	0	0	0	0	0	0	0	0	0	-29.5803	162.52	-16.0234	0.930905	0	-0.319764	0.218867	-1.2025	0.118558
0.43	0	0	0	0	0	0	0	0	0	-33.5532	381.469	-16.0634	0.907161	0	-0.324446	0.182248	-2.07199	0.08725
0.44	0	0	0	0	0	0	0	0	0	-44.1581	677.104	-0.566538	0.895579	0	-0.326424	0.122174	-1.87338	0.00156747
0.45	0	0	0	0	0	0	0	0	0	-92.1291	927.09	22.6309	0.88662	0	-0.328704	0.14117	-1.42058	-0.0346774
0.46	0	0	0	0	0	0	0	0	0	-166.313	1064.47	31.6364	0.874747	0	-0.332046	0.181419	-1.16115	-0.03451
0.47	0	0	0	0	0	0	0	0	0	-224.478	1170.02	21.4694	0.853943	0	-0.336114	0.212378	-1.10695	-0.0203122
0.48	0	0	0	0	0	0	0	0	0	-232.671	1316.18	30.9453	0.821743	0	-0.339845	0.194775	-1.10181	-0.0259052
0.49	0	0	0	0	0	0	0	0	0	-195.633	1480.88	67.9422	0.782131	0	-0.342497	0.127971	-0.968699	-0.0444435
0.5	0	0	0	0	0	0	0	0	0	-139.742	1608.62	89.8007	0.741292	0	-0.344134	0.059199	-0.681461	-0.0380424
0.51	0	0	0	0	0	0	0	0	0	-76.9676	1671.89	81.8361	0.70231	0	-0.344956	0.0245109	-0.532424	-0.0260613
0.52	0	0	0	0	0	0	0	0	0	-13.6761	1671.25	70.1607	0.664698	0	-0.344902	0.00761881	-0.931035	-0.0390857
0.53	0	0	0	0	0	0	0	0	0	46.8899	1610.21	64.4667	0.626262	0	-0.343855	-0.0520354	-1.78691	-0.071541
0.54	0	0	0	0	0	0	0	0	0	108.564	1485.1	48.4328	0.584779	0	-0.34186	-0.16319	-2.23235	-0.0728025
0.55	0	0	0	0	0	0	0	0	0	173.34	1298.04	18.2952	0.539459	0	-0.33905	-0.181232	-1.35714	-0.0191281
0.56	0	0	0	0	0	0	0	0	0	225.742	1072.69	-12.4716	0.492009	0	-0.335452	0.147186	0.699403	-0.00813163
0.57	0	0	0	0	0	0	0	0	0	240.604	836.298	-28.7914	0.445727	0	-0.331144	0.78688	2.73506	-0.0941607
0.58	0	0	0	0	0	0	0	0	0	219.15	604.644	-28.6718	0.402637	0	-0.326528	1.32518	3.65623	-0.173376
0.59	0	0	0	0	0	0	0	0	0	179.491	395.025	-23.3181	0.360361	0	-0.322165	1.43435	3.15673	-0.18634
0.6	0	0	0	0	0	0	0	0	0	130.312	222.522	-19.1243	0.307919	0	-0.318984	0.925535	1.58045	-0.13583
0.61	0	0	0	0	0	0	0	0	0	76.1536	101.483	-14.1552	0.216067	0	-0.317185	-0.194903	-0.25973	0.036228
0.62	0	0	0	0	0	0	0	0	0	0	0	0	0	0	0	0	0	0
0.63	0	0	0	0	0	0	0	0	0	0	0	0	0	0	0	0	0	0
0.64	0	0	0	0	0	0	0	0	0	0	0	0	0	0	0	0	0	0
0.65	0	0	0	0	0	0	0	0	0	0	0	0	0	0	0	0	0	0
0.66	0	0	0	0	0	0	0	0	0	0	0	0	0	0	0	0	0	0
0.67	0	0	0	0	0	0	0	0	0	0	0	0	0	0	0	0	0	0
0.68	0	0	0	0	0	0	0	0	0	0	0	0	0	0	0	0	0	0
0.69	0	0	0	0	0	0	0	0	0	0	0	0	0	0	0	0	0	0
0.7	-43.6854	118.916	-2.48636	0.955239	0	-0.232002	0.0664662	-0.180928	0.00378293	0	0	0	0	0	0	0	0	0
0.71	-60.1044	302.779	-2.89815	0.912599	0	-0.251589	0.049993	-0.251842	0.00241059	0	0	0	0	0	0	0	0	0
0.72	-68.5403	602.624	1.59194	0.897251	0	-0.254921	-0.0695355	0.611374	0.00161505	0	0	0	0	0	0	0	0	0
0.73	-91.8391	911.116	13.1453	0.887039	0	-0.255357	-0.180074	1.78647	0.0257747	0	0	0	0	0	0	0	0	0
0.74	-150.276	1114.92	18.346	0.875974	0	-0.254746	-0.322719	2.3943	0.039398	0	0	0	0	0	0	0	0	0
0.75	-212.578	1245.96	-6.00486	0.858642	0	-0.253387	-0.366397	2.14753	-0.0103499	0	0	0	0	0	0	0	0	0
0.76	-225.89	1369.75	-44.6726	0.83089	0	-0.25135	-0.218725	1.3263	-0.0432557	0	0	0	0	0	0	0	0	0
0.77	-186.449	1491.87	-61.2043	0.793207	0	-0.248958	-0.0327109	0.261736	-0.0107378	0	0	0	0	0	0	0	0	0
0.78	-124.399	1585.67	-64.7557	0.750289	0	-0.246685	0.0671008	-0.85531	0.0349292	0	0	0	0	0	0	0	0	0
0.79	-53.7862	1630	-80.6146	0.706406	0	-0.244946	0.0637818	-1.93292	0.095596	0	0	0	0	0	0	0	0	0
0.8	21.3247	1617.94	-95.0594	0.662892	0	-0.243963	-0.0392383	-2.97708	0.174913	0	0	0	0	0	0	0	0	0
0.81	96.365	1550.86	-87.8474	0.619252	0	-0.243836	-0.25279	-4.06831	0.230446	0	0	0	0	0	0	0	0	0
0.82	164.662	1429.88	-67.7245	0.575013	0	-0.24462	-0.59672	-5.18176	0.245428	0	0	0	0	0	0	0	0	0
0.83	216.812	1257.88	-46.8927	0.530554	0	-0.246229	-1.03363	-5.99685	0.223557	0	0	0	0	0	0	0	0	0
0.84	242.668	1044.8	-26.8215	0.486724	0	-0.248289	-1.39246	-5.99522	0.153905	0	0	0	0	0	0	0	0	0
0.85	236.947	804.458	-8.50538	0.443696	0	-0.250142	-1.44749	-4.91436	0.0519586	0	0	0	0	0	0	0	0	0
0.86	205.458	559.25	4.61516	0.399994	0	-0.25098	-1.19056	-3.24067	-0.0267433	0	0	0	0	0	0	0	0	0
0.87	159.659	341.432	8.26074	0.351514	0	-0.249979	-0.998337	-2.13495	-0.0516539	0	0	0	0	0	0	0	0	0
0.88	105.956	177.82	1.93354	0.287846	0	-0.245587	-1.38505	-2.32444	-0.0252751	0	0	0	0	0	0	0	0	0
0.89	53.4466	78.2108	-2.9997	0.178741	0	-0.211405	-2.18042	-3.1907	0.122376	0	0	0	0	0	0	0	0	0
0.9	0	0	0	0	0	0	0	0	0	0	0	0	0	0	0	0	0	0
0.91	0	0	0	0	0	0	0	0	0	0	0	0	0	0	0	0	0	0
0.92	0	0	0	0	0	0	0	0	0	0	0	0	0	0	0	0	0	0
0.93	0	0	0	0	0	0	0	0	0	0	0	0	0	0	0	0	0	0
0.94	0	0	0	0	0	0	0	0	0	0	0	0	0	0	0	0	0	0
0.95	0	0	0	0	0	0	0	0	0	0	0	0	0	0	0	0	0	0
0.96	0	0	0	0	0	0	0	0	0	0	0	0	0	0	0	0	0	0
0.97	0	0	0	0	0	0	0	0	0	-29.8388	59.2036	-7.77108	1.30069	0	-0.207714	-0.303962	0.603095	-0.0791624
0.98	0	0	0	0	0	0	0	0	0	-50.4357	163.899	-16.0298	0.964521	0	-0.356445	0.448088	-1.45613	0.142414
0.99	0	0	0	0	0	0	0	0	0	-55.941	376.25	-17.6394	0.94269	0	-0.358776	0.458947	-3.0868	0.144716
1	0	0	0	0	0	0	0	0	0	-57.9964	670.022	1.08035	0.930902	0	-0.359771	0.285594	-3.29941	-0.00532001
1.01	0	0	0	0	0	0	0	0	0	-96.3394	919.404	37.9472	0.921732	0	-0.361091	0.303511	-2.89652	-0.11955
1.02	0	0	0	0	0	0	0	0	0	-166.35	1058.58	52.3046	0.910047	0	-0.363503	0.414522	-2.63784	-0.130336
